<?xml version="1.0" encoding="UTF-8"?>
<svg version="1.1" xmlns="http://www.w3.org/2000/svg" width="300" height="67">
<path d="M0 0 C5.45593183 2.73266121 9.7164094 7.50998761 11.95703125 13.19921875 C11.71089666 16.97137443 10.74201883 18.93567305 8.01953125 21.51171875 C7.49488281 22.02347656 6.97023437 22.53523438 6.4296875 23.0625 C4.95703125 24.19921875 4.95703125 24.19921875 2.95703125 24.19921875 C0.91230056 28.28868013 0.69933482 30.79728126 1.95703125 35.19921875 C4.80956396 40.42886206 8.90501248 44.57319845 12.93359375 48.9296875 C15.32327454 51.61000514 16.83572662 53.41940328 17.39453125 57.01171875 C16.83249658 61.10654274 15.17076923 63.6835448 11.95703125 66.19921875 C8.94048196 66.68963934 6.80491964 66.8262952 3.83203125 66.63671875 C3.07140381 66.61295166 2.31077637 66.58918457 1.52709961 66.56469727 C-3.34804387 66.38620586 -8.17237483 65.9105604 -13.015625 65.3359375 C-15.60400972 65.21904271 -17.96572803 65.31277438 -20.5390625 65.53125 C-21.74381226 65.62998413 -21.74381226 65.62998413 -22.97290039 65.73071289 C-24.57209466 65.87362641 -26.16941831 66.03987453 -27.76342773 66.23217773 C-31.95941781 66.60939162 -33.43138686 66.68356446 -36.859375 63.96875 C-37.57996094 63.05480469 -38.30054688 62.14085937 -39.04296875 61.19921875 C-39.97302734 60.19181641 -39.97302734 60.19181641 -40.921875 59.1640625 C-46.35970174 52.61596023 -49.57628741 45.49892875 -50.328125 36.9609375 C-50.23402344 36.04957031 -50.13992187 35.13820312 -50.04296875 34.19921875 C-47.04296875 32.19921875 -47.04296875 32.19921875 -43.04296875 32.19921875 C-42.10657665 28.89976284 -42.10657665 28.89976284 -42.04296875 25.19921875 C-43.67557589 23.82439168 -45.34521937 22.49274208 -47.04296875 21.19921875 C-47.85546875 17.44921875 -47.85546875 17.44921875 -48.04296875 14.19921875 C-33.64449136 3.03189574 -18.54794314 -4.88103767 0 0 Z M-16.04296875 4.19921875 C-14.7096478 8.19918161 -12.54718605 9.03704212 -9.04296875 11.19921875 C-7.04313341 10.40803971 -7.04313341 10.40803971 -5.04296875 9.19921875 C-4.71296875 8.20921875 -4.38296875 7.21921875 -4.04296875 6.19921875 C-8.16354335 4.2013644 -11.4949124 4.0208636 -16.04296875 4.19921875 Z M-0.04296875 11.19921875 C-0.37296875 11.85921875 -0.70296875 12.51921875 -1.04296875 13.19921875 C0.27703125 12.86921875 1.59703125 12.53921875 2.95703125 12.19921875 C1.96703125 11.86921875 0.97703125 11.53921875 -0.04296875 11.19921875 Z M-13.04296875 43.19921875 C-14.03296875 44.18921875 -15.02296875 45.17921875 -16.04296875 46.19921875 C-14.39296875 45.53921875 -12.74296875 44.87921875 -11.04296875 44.19921875 C-11.70296875 43.86921875 -12.36296875 43.53921875 -13.04296875 43.19921875 Z " fill="#EC2123" transform="translate(203.04296875,0.80078125)"/>
<path d="M0 0 C12 0 12 0 15.18359375 2.59765625 C15.97573556 3.72498534 16.72748196 4.88172318 17.4375 6.0625 C17.81841797 6.62388672 18.19933594 7.18527344 18.59179688 7.76367188 C19.75746276 9.48948853 20.87863583 11.24507479 22 13 C23.65 15.31 25.3 17.62 27 20 C27.33 13.4 27.66 6.8 28 0 C31.96 0 35.92 0 40 0 C40 13.86 40 27.72 40 42 C28 42 28 42 24.5625 39.11328125 C23.66831647 37.87427328 22.81388503 36.60567288 22 35.3125 C21.34451172 34.37374023 21.34451172 34.37374023 20.67578125 33.41601562 C19.85637595 32.24104256 19.05305694 31.05452372 18.2734375 29.8527832 C16.64082718 27.47742282 14.80056939 25.25071173 13 23 C12.67 29.27 12.34 35.54 12 42 C8.04 42 4.08 42 0 42 C0 28.14 0 14.28 0 0 Z " fill="#EC2123" transform="translate(227,13)"/>
<path d="M0 0 C4.62 0 9.24 0 14 0 C14.66 2.97 15.32 5.94 16 9 C16.34289062 8.3503125 16.68578125 7.700625 17.0390625 7.03125 C18.83088694 4.17139228 20.36820742 2.13366149 23 0 C28.74645675 -1.04598426 34.44575882 -0.85141373 40 1 C38.47723638 4.39874559 36.47613999 7.05846254 34.125 9.9375 C33.44695312 10.77152344 32.76890625 11.60554688 32.0703125 12.46484375 C31.38710937 13.30144531 30.70390625 14.13804688 30 15 C28.66497731 16.66531377 27.33114831 18.33158766 26 20 C27.712526 24.1487981 30.58883033 27.2187922 33.5 30.5625 C41 39.23498062 41 39.23498062 41 43 C25.77702692 44.06798141 25.77702692 44.06798141 21.640625 41.58203125 C20.15251133 39.78325467 19.08213 38.06359675 18 36 C17.01 34.68 16.02 33.36 15 32 C14.67 35.63 14.34 39.26 14 43 C9.38 43 4.76 43 0 43 C0 28.81 0 14.62 0 0 Z M4 4 C4 15.55 4 27.1 4 39 C5.98 39 7.96 39 10 39 C10.33 33.72 10.66 28.44 11 23 C15.57095617 25.7425737 17.50609734 27.50607658 20.6875 31.5625 C23.70042676 35.40910814 23.70042676 35.40910814 27 39 C30.08347826 39.16681109 30.08347826 39.16681109 33 39 C30.21719091 34.00359278 26.5871221 30.04048245 22.765625 25.81640625 C21 23 21 23 20.953125 19.9765625 C22.209062 16.40557745 23.85848299 14.50835201 26.5 11.8125 C29.96406721 8.34867996 29.96406721 8.34867996 32 4 C29.17352243 3.60794956 29.17352243 3.60794956 26 4 C23.68959938 5.98066962 23.68959938 5.98066962 21.875 8.6875 C20.91207031 9.99267578 20.91207031 9.99267578 19.9296875 11.32421875 C19.29289062 12.20722656 18.65609375 13.09023438 18 14 C14.38600874 18.87133042 14.38600874 18.87133042 11 20 C10.67 14.72 10.34 9.44 10 4 C8.02 4 6.04 4 4 4 Z " fill="#EC2123" transform="translate(76,13)"/>
<path d="M0 0 C0 3.96 0 7.92 0 12 C-3.63 12 -7.26 12 -11 12 C-11 13.32 -11 14.64 -11 16 C-7.37 16 -3.74 16 0 16 C0 19.63 0 23.26 0 27 C-3.63 27 -7.26 27 -11 27 C-11 28.32 -11 29.64 -11 31 C-7.37 31 -3.74 31 0 31 C0 34.63 0 38.26 0 42 C-3.64588169 42.02682987 -7.29156846 42.04675569 -10.9375 42.0625 C-12.49887695 42.07506836 -12.49887695 42.07506836 -14.09179688 42.08789062 C-15.08115234 42.09111328 -16.07050781 42.09433594 -17.08984375 42.09765625 C-18.46450806 42.10551147 -18.46450806 42.10551147 -19.86694336 42.11352539 C-22 42 -22 42 -23 41 C-23.08868299 38.04294679 -23.11520296 35.10934944 -23.09765625 32.15234375 C-23.0962413 31.2659169 -23.09482635 30.37949005 -23.09336853 29.46620178 C-23.08775215 26.62326746 -23.07519691 23.78041069 -23.0625 20.9375 C-23.05748711 19.01497509 -23.05292384 17.09244896 -23.04882812 15.16992188 C-23.03777741 10.44658451 -23.02050183 5.72330542 -23 1 C-20.47932687 0.83054298 -17.95850616 0.66436516 -15.4375 0.5 C-14.73302734 0.45230469 -14.02855469 0.40460937 -13.30273438 0.35546875 C-8.85739865 0.0686729 -4.45455341 -0.04682842 0 0 Z " fill="#EC2123" transform="translate(300,13)"/>
<path d="M0 0 C8.25 0 16.5 0 25 0 C25 4.29 25 8.58 25 13 C21.04 13 17.08 13 13 13 C13 13.66 13 14.32 13 15 C16.96 15 20.92 15 25 15 C25 19.29 25 23.58 25 28 C21.04 28 17.08 28 13 28 C13 28.66 13 29.32 13 30 C16.96 30 20.92 30 25 30 C25 34.29 25 38.58 25 43 C16.75 43 8.5 43 0 43 C0 28.81 0 14.62 0 0 Z M3 4 C3 15.55 3 27.1 3 39 C9.27 39 15.54 39 22 39 C22 37.68 22 36.36 22 35 C17.71 35 13.42 35 9 35 C9.33 31.37 9.66 27.74 10 24 C13.3 24 16.6 24 20 24 C20 22.35 20 20.7 20 19 C16.37 19 12.74 19 9 19 C9 15.7 9 12.4 9 9 C13.29 9 17.58 9 22 9 C21.67 7.35 21.34 5.7 21 4 C15.06 4 9.12 4 3 4 Z " fill="#EC2123" transform="translate(121,13)"/>
<path d="M0 0 C1.39456452 0.00667256 2.78911118 0.01863093 4.18359375 0.03515625 C4.89451172 0.03966797 5.60542969 0.04417969 6.33789062 0.04882812 C8.09899388 0.06064761 9.86005411 0.07858362 11.62109375 0.09765625 C13.56554254 5.18976506 15.50652676 10.28315284 17.44140625 15.37890625 C18.77397527 18.88554346 20.12047397 22.38587397 21.48828125 25.87890625 C21.76591309 26.59626953 22.04354492 27.31363281 22.32958984 28.05273438 C22.84414435 29.38213246 23.36497185 30.70912543 23.89306641 32.03320312 C25.3253906 35.76306767 25.62109375 37.94874109 25.62109375 42.09765625 C21.00109375 42.09765625 16.38109375 42.09765625 11.62109375 42.09765625 C10.63109375 40.11765625 9.64109375 38.13765625 8.62109375 36.09765625 C4.99109375 36.09765625 1.36109375 36.09765625 -2.37890625 36.09765625 C-3.03890625 38.07765625 -3.69890625 40.05765625 -4.37890625 42.09765625 C-9.32890625 42.09765625 -14.27890625 42.09765625 -19.37890625 42.09765625 C-17.09308723 33.92145745 -14.16515576 26.05287551 -11.08056641 18.15356445 C-10.2440408 16.00987495 -9.41462034 13.86352875 -8.5859375 11.71679688 C-4.08332998 0.11801532 -4.08332998 0.11801532 0 0 Z M-0.37890625 3.09765625 C-2.07265409 7.43809933 -3.76323791 11.77975639 -5.45092773 16.12255859 C-6.02525875 17.59913204 -6.60044624 19.07537266 -7.17651367 20.55126953 C-8.00535977 22.67523236 -8.83109778 24.80038109 -9.65625 26.92578125 C-9.91357407 27.58322327 -10.17089813 28.24066528 -10.4360199 28.91802979 C-11.60865333 31.9468104 -12.70274242 34.91653315 -13.37890625 38.09765625 C-11.39890625 38.09765625 -9.41890625 38.09765625 -7.37890625 38.09765625 C-6.71890625 36.11765625 -6.05890625 34.13765625 -5.37890625 32.09765625 C0.23109375 32.09765625 5.84109375 32.09765625 11.62109375 32.09765625 C12.61109375 34.07765625 13.60109375 36.05765625 14.62109375 38.09765625 C16.60109375 38.09765625 18.58109375 38.09765625 20.62109375 38.09765625 C16.5805666 26.30227257 12.38762902 14.6211481 7.62109375 3.09765625 C4.98109375 3.09765625 2.34109375 3.09765625 -0.37890625 3.09765625 Z " fill="#EC2123" transform="translate(46.37890625,13.90234375)"/>
<path d="M0 0 C9.9 0 19.8 0 30 0 C29.67 4.29 29.34 8.58 29 13 C26.36 13 23.72 13 21 13 C21 22.9 21 32.8 21 43 C16.38 43 11.76 43 7 43 C7 33.1 7 23.2 7 13 C4.69 13 2.38 13 0 13 C0 8.71 0 4.42 0 0 Z M3 4 C3 5.65 3 7.3 3 9 C5.64 9 8.28 9 11 9 C11 18.9 11 28.8 11 39 C12.98 39 14.96 39 17 39 C17 29.1 17 19.2 17 9 C19.64 9 22.28 9 25 9 C25 7.35 25 5.7 25 4 C17.74 4 10.48 4 3 4 Z " fill="#EC2123" transform="translate(0,13)"/>
<path d="M0 0 C2.71161391 1.00284894 3.78469211 1.54608598 5.046875 4.20703125 C5.27890625 5.06683594 5.5109375 5.92664063 5.75 6.8125 C6.11351562 8.09060547 6.11351562 8.09060547 6.484375 9.39453125 C7 12 7 12 7 17 C2.71 17 -1.58 17 -6 17 C-4.67594074 10.93139507 -2.67149708 5.60236281 0 0 Z M0 10 C0 10.99 0 11.98 0 13 C0.66 13 1.32 13 2 13 C1.67 12.01 1.34 11.02 1 10 C0.67 10 0.34 10 0 10 Z " fill="#EC2123" transform="translate(49,25)"/>
</svg>
